{"title":"Case.39.2009.SWESUB.DVDRip.XviD.AC3.(5.1).-Zen_Bud","uid":5670343,"size":1466159744,"categoryP":"video","categoryS":"movies","magnet":"?xt=urn:btih:67defac2baee6bc68abe717f003cbaed567f7421&amp;dn=Case.39.2009.SWESUB.DVDRip.XviD.AC3.%285.1%29.-Zen_Bud&amp;tr=udp%3A%2F%2Ftracker.openbittorrent.com%3A80&amp;tr=udp%3A%2F%2Fopen.demonii.com%3A1337&amp;tr=udp%3A%2F%2Ftracker.coppersurfer.tk%3A6969&amp;tr=udp%3A%2F%2Fexodus.desync.com%3A6969","seeders":0,"leechers":1,"uploader":"Zen_Bud","files":-1,"time":1278318315,"description":"General\nComplete name                    : Case.39.avi\nFormat                           : AVI\nFile size                        : 1.37 GiB\nDuration                         : 1h 44mn\nOverall bit rate                 : 1 867 Kbps\n\nVideo\n\nFormat                           : MPEG-4 Visual\nCodec ID/Hint                    : XviD\nDuration                         : 1h 44mn\nBit rate                         : 1 408 Kbps\nWidth                            : 718 pixels\nHeight                           : 436 pixels\nDisplay aspect ratio             : 2.35:1\nStream size                      : 1.03 GiB (75%)\nWriting library                  : XviD 1.1.2 (UTC 2006-11-01)\n\nAudio\n\nFormat                           : AC-3\nDuration                         : 1h 44mn\nBit rate                         : 448 Kbps\nChannel(s)                       : 6 channels\nChannel positions                : Front: L C R, Side: L R, LFE\nSampling rate                    : 48.0 KHz\nStream size                      : 335 MiB (24%)\n\n\n","torrent":{"xt":"urn:btih:67defac2baee6bc68abe717f003cbaed567f7421","amp;dn":"Case.39.2009.SWESUB.DVDRip.XviD.AC3.%285.1%29.-Zen_Bud","amp;tr":["udp%3A%2F%2Ftracker.openbittorrent.com%3A80","udp%3A%2F%2Fopen.demonii.com%3A1337","udp%3A%2F%2Ftracker.coppersurfer.tk%3A6969","udp%3A%2F%2Fexodus.desync.com%3A6969"],"infoHash":"67defac2baee6bc68abe717f003cbaed567f7421","infoHashBuffer":{"type":"Buffer","data":[103,222,250,194,186,238,107,198,138,190,113,127,0,60,186,237,86,127,116,33]},"announce":[],"urlList":[]}}